<?xml version="1.0" encoding="utf-8"?>
<svg xmlns="http://www.w3.org/2000/svg"
	xmlns:xlink="http://www.w3.org/1999/xlink"
	width="600" height="400" viewBox="0 0 600 400">
<defs>
<style type="text/css"><![CDATA[
line {
	stroke: #000000;
	stroke-linecap: square;
	stroke-width: 5;
}
]]></style>
</defs>
<line x1="0.0" y1="50.0" x2="50.0" y2="50.0"/>
<line x1="50.0" y1="100.0" x2="50.0" y2="150.0"/>
<line x1="0.0" y1="200.0" x2="50.0" y2="200.0"/>
<line x1="50.0" y1="250.0" x2="50.0" y2="300.0"/>
<line x1="0.0" y1="400.0" x2="50.0" y2="400.0"/>
<line x1="100.0" y1="0.0" x2="100.0" y2="50.0"/>
<line x1="50.0" y1="100.0" x2="100.0" y2="100.0"/>
<line x1="100.0" y1="50.0" x2="100.0" y2="100.0"/>
<line x1="50.0" y1="200.0" x2="100.0" y2="200.0"/>
<line x1="100.0" y1="150.0" x2="100.0" y2="200.0"/>
<line x1="100.0" y1="200.0" x2="100.0" y2="250.0"/>
<line x1="50.0" y1="300.0" x2="100.0" y2="300.0"/>
<line x1="100.0" y1="250.0" x2="100.0" y2="300.0"/>
<line x1="50.0" y1="350.0" x2="100.0" y2="350.0"/>
<line x1="50.0" y1="400.0" x2="100.0" y2="400.0"/>
<line x1="100.0" y1="50.0" x2="150.0" y2="50.0"/>
<line x1="100.0" y1="150.0" x2="150.0" y2="150.0"/>
<line x1="150.0" y1="100.0" x2="150.0" y2="150.0"/>
<line x1="150.0" y1="200.0" x2="150.0" y2="250.0"/>
<line x1="150.0" y1="250.0" x2="150.0" y2="300.0"/>
<line x1="100.0" y1="350.0" x2="150.0" y2="350.0"/>
<line x1="150.0" y1="300.0" x2="150.0" y2="350.0"/>
<line x1="100.0" y1="400.0" x2="150.0" y2="400.0"/>
<line x1="150.0" y1="50.0" x2="200.0" y2="50.0"/>
<line x1="150.0" y1="100.0" x2="200.0" y2="100.0"/>
<line x1="200.0" y1="100.0" x2="200.0" y2="150.0"/>
<line x1="200.0" y1="150.0" x2="200.0" y2="200.0"/>
<line x1="150.0" y1="250.0" x2="200.0" y2="250.0"/>
<line x1="200.0" y1="250.0" x2="200.0" y2="300.0"/>
<line x1="200.0" y1="300.0" x2="200.0" y2="350.0"/>
<line x1="150.0" y1="400.0" x2="200.0" y2="400.0"/>
<line x1="200.0" y1="350.0" x2="200.0" y2="400.0"/>
<line x1="200.0" y1="50.0" x2="250.0" y2="50.0"/>
<line x1="250.0" y1="50.0" x2="250.0" y2="100.0"/>
<line x1="250.0" y1="100.0" x2="250.0" y2="150.0"/>
<line x1="200.0" y1="200.0" x2="250.0" y2="200.0"/>
<line x1="200.0" y1="300.0" x2="250.0" y2="300.0"/>
<line x1="200.0" y1="400.0" x2="250.0" y2="400.0"/>
<line x1="250.0" y1="100.0" x2="300.0" y2="100.0"/>
<line x1="250.0" y1="200.0" x2="300.0" y2="200.0"/>
<line x1="300.0" y1="150.0" x2="300.0" y2="200.0"/>
<line x1="250.0" y1="250.0" x2="300.0" y2="250.0"/>
<line x1="300.0" y1="200.0" x2="300.0" y2="250.0"/>
<line x1="300.0" y1="250.0" x2="300.0" y2="300.0"/>
<line x1="250.0" y1="350.0" x2="300.0" y2="350.0"/>
<line x1="250.0" y1="400.0" x2="300.0" y2="400.0"/>
<line x1="300.0" y1="50.0" x2="350.0" y2="50.0"/>
<line x1="300.0" y1="100.0" x2="350.0" y2="100.0"/>
<line x1="350.0" y1="100.0" x2="350.0" y2="150.0"/>
<line x1="300.0" y1="200.0" x2="350.0" y2="200.0"/>
<line x1="300.0" y1="300.0" x2="350.0" y2="300.0"/>
<line x1="300.0" y1="350.0" x2="350.0" y2="350.0"/>
<line x1="300.0" y1="400.0" x2="350.0" y2="400.0"/>
<line x1="350.0" y1="50.0" x2="400.0" y2="50.0"/>
<line x1="400.0" y1="0.0" x2="400.0" y2="50.0"/>
<line x1="400.0" y1="50.0" x2="400.0" y2="100.0"/>
<line x1="350.0" y1="150.0" x2="400.0" y2="150.0"/>
<line x1="400.0" y1="150.0" x2="400.0" y2="200.0"/>
<line x1="350.0" y1="250.0" x2="400.0" y2="250.0"/>
<line x1="400.0" y1="200.0" x2="400.0" y2="250.0"/>
<line x1="350.0" y1="300.0" x2="400.0" y2="300.0"/>
<line x1="350.0" y1="350.0" x2="400.0" y2="350.0"/>
<line x1="400.0" y1="300.0" x2="400.0" y2="350.0"/>
<line x1="350.0" y1="400.0" x2="400.0" y2="400.0"/>
<line x1="450.0" y1="0.0" x2="450.0" y2="50.0"/>
<line x1="400.0" y1="100.0" x2="450.0" y2="100.0"/>
<line x1="450.0" y1="100.0" x2="450.0" y2="150.0"/>
<line x1="400.0" y1="250.0" x2="450.0" y2="250.0"/>
<line x1="450.0" y1="200.0" x2="450.0" y2="250.0"/>
<line x1="450.0" y1="250.0" x2="450.0" y2="300.0"/>
<line x1="400.0" y1="350.0" x2="450.0" y2="350.0"/>
<line x1="400.0" y1="400.0" x2="450.0" y2="400.0"/>
<line x1="450.0" y1="50.0" x2="500.0" y2="50.0"/>
<line x1="450.0" y1="100.0" x2="500.0" y2="100.0"/>
<line x1="450.0" y1="150.0" x2="500.0" y2="150.0"/>
<line x1="500.0" y1="150.0" x2="500.0" y2="200.0"/>
<line x1="500.0" y1="200.0" x2="500.0" y2="250.0"/>
<line x1="450.0" y1="300.0" x2="500.0" y2="300.0"/>
<line x1="500.0" y1="300.0" x2="500.0" y2="350.0"/>
<line x1="450.0" y1="400.0" x2="500.0" y2="400.0"/>
<line x1="500.0" y1="50.0" x2="550.0" y2="50.0"/>
<line x1="500.0" y1="100.0" x2="550.0" y2="100.0"/>
<line x1="550.0" y1="100.0" x2="550.0" y2="150.0"/>
<line x1="500.0" y1="250.0" x2="550.0" y2="250.0"/>
<line x1="550.0" y1="250.0" x2="550.0" y2="300.0"/>
<line x1="550.0" y1="300.0" x2="550.0" y2="350.0"/>
<line x1="500.0" y1="400.0" x2="550.0" y2="400.0"/>
<line x1="550.0" y1="350.0" x2="550.0" y2="400.0"/>
<line x1="600.0" y1="0.0" x2="600.0" y2="50.0"/>
<line x1="600.0" y1="50.0" x2="600.0" y2="100.0"/>
<line x1="600.0" y1="100.0" x2="600.0" y2="150.0"/>
<line x1="550.0" y1="200.0" x2="600.0" y2="200.0"/>
<line x1="600.0" y1="150.0" x2="600.0" y2="200.0"/>
<line x1="600.0" y1="200.0" x2="600.0" y2="250.0"/>
<line x1="600.0" y1="250.0" x2="600.0" y2="300.0"/>
<line x1="600.0" y1="300.0" x2="600.0" y2="350.0"/>
<line x1="550.0" y1="400.0" x2="600.0" y2="400.0"/>
<line x1="600.0" y1="350.0" x2="600.0" y2="400.0"/>
<line x1="0" y1="0" x2="600" y2="0"/>
<line x1="0" y1="0" x2="0" y2="400"/>
<circle cx="25" cy="25" r="15" stroke="black" stroke-width="3" fill="green" />
<circle cx="575" cy="25" r="15" stroke="black" stroke-width="3" fill="blue" />
<circle cx="25" cy="375" r="15" stroke="black" stroke-width="3" fill="red" />
<circle cx="575" cy="375" r="15" stroke="black" stroke-width="3" fill="yellow" />
</svg>
